<?xml version="1.0" encoding="utf-8"?>
<!-- Generator: Adobe Illustrator 26.5.0, SVG Export Plug-In . SVG Version: 6.00 Build 0)  -->
<svg version="1.1" id="Layer_1" xmlns="http://www.w3.org/2000/svg" xmlns:xlink="http://www.w3.org/1999/xlink" x="0px" y="0px"
	 viewBox="0 0 480 72" style="enable-background:new 0 0 480 72;" xml:space="preserve">
<style type="text/css">
	.st0{fill:#FF9B2E;}
</style>
<g>
	<path class="st0" d="M49.91,48.68v-0.82c0-0.72-0.11-1.47-0.32-2.24c-0.22-0.77-0.61-1.15-1.18-1.15H26.89
		c-2.15,0-4.09-0.66-5.81-1.97c-1.72-1.31-3.21-2.99-4.46-5.03c-1.26-2.04-2.2-4.28-2.85-6.73c-0.65-2.44-0.97-4.84-0.97-7.2
		c0-2.17,0.5-4.64,1.51-7.4c1-2.76,2.29-5.39,3.87-7.88c1.58-2.49,3.37-4.57,5.38-6.25c2.01-1.67,4.02-2.51,6.02-2.51h54.86
		c-1.65,3.08-3.53,6.16-5.65,9.24c-2.12,3.08-4.46,6.16-7.05,9.24h-35.5c-0.79,0-1.47,0.68-2.04,2.04
		c-0.58,1.36-0.86,2.44-0.86,3.26v0.68c0,0.09,0.14,0.29,0.43,0.61c0.29,0.32,0.5,0.57,0.65,0.75c0.29,0.36,0.7,0.7,1.24,1.02
		c0.54,0.32,0.84,0.48,0.91,0.48h20.44c2.29,0,4.27,0.7,5.92,2.11c1.65,1.4,2.99,3.17,4.03,5.3c1.04,2.13,1.81,4.42,2.31,6.86
		c0.5,2.44,0.75,4.71,0.75,6.79v0.82c0,2.36-0.43,4.87-1.29,7.54c-0.86,2.67-1.99,5.14-3.39,7.4c-1.4,2.26-3.01,4.14-4.84,5.64
		c-1.83,1.49-3.71,2.24-5.65,2.24H0c0.36-0.9,1.09-2.35,2.21-4.35c1.11-1.99,2.29-4.01,3.55-6.04c1.25-2.04,2.42-3.85,3.5-5.43
		c1.08-1.58,1.72-2.38,1.94-2.38h36.58c1.08,0,1.7-0.41,1.88-1.22c0.18-0.82,0.27-1.68,0.27-2.58V48.68z"/>
	<path class="st0" d="M102.41,17.84H82.08V17.7c0.07-0.36,0.59-1.36,1.56-2.99c0.97-1.63,2.11-3.44,3.44-5.43
		c1.33-1.99,2.69-3.92,4.09-5.77c1.4-1.86,2.6-3.19,3.6-4.01h53.9c-0.5,1.27-1.34,2.92-2.53,4.96c-1.18,2.04-2.44,4.05-3.77,6.05
		c-1.33,1.99-2.62,3.71-3.87,5.16c-1.26,1.45-2.17,2.17-2.74,2.17h-12.69L107.57,71.5H86.92L102.41,17.84z"/>
	<path class="st0" d="M215.47-0.5c-0.5,1.27-1.34,2.92-2.53,4.96c-1.18,2.04-2.44,4.05-3.76,6.05c-1.33,1.99-2.62,3.71-3.87,5.16
		c-1.26,1.45-2.17,2.17-2.74,2.17h-33.13l-6.13,21.33l10.22-12.5h24.85l-15.38,18.34h-21.41l-2.37,8.15h41.2
		c-0.07,0.18-0.25,0.57-0.54,1.15c-0.29,0.59-0.58,1.2-0.86,1.83c-0.29,0.63-0.57,1.22-0.86,1.77c-0.29,0.54-0.47,0.86-0.54,0.95
		c-0.65,1.09-1.52,2.36-2.64,3.8c-1.11,1.45-2.21,2.83-3.28,4.14c-1.08,1.31-2.03,2.42-2.85,3.33c-0.82,0.91-1.27,1.36-1.34,1.36
		h-54.11l20.76-72H215.47z"/>
	<path class="st0" d="M200.63,71.5l20.76-72h20.55l-15.49,53.66h34.1c0.07,0-0.34,0.77-1.24,2.31c-0.9,1.54-2.03,3.33-3.39,5.37
		c-1.36,2.04-2.8,4.08-4.3,6.11c-1.51,2.04-2.76,3.56-3.77,4.55H200.63z"/>
	<path class="st0" d="M260.87,71.5l20.76-72h20.55l-15.49,53.66h34.1c0.07,0-0.34,0.77-1.24,2.31c-0.9,1.54-2.03,3.33-3.39,5.37
		c-1.36,2.04-2.8,4.08-4.3,6.11c-1.51,2.04-2.76,3.56-3.77,4.55H260.87z"/>
	<path class="st0" d="M395.88,47.59c-2.15,4.71-4.82,8.83-8.01,12.36s-6.78,6.34-10.76,8.42c-3.98,2.08-8.09,3.12-12.32,3.12h-10.76
		c-3.95,0-7.6-0.41-10.97-1.22c-3.37-0.82-6.28-2.2-8.71-4.14c-2.44-1.95-4.36-4.59-5.75-7.95c-1.4-3.35-2.1-7.56-2.1-12.63
		c0-1.09,0.03-2.22,0.11-3.4c0.07-1.17,0.18-2.4,0.32-3.67c0.57-5.07,1.9-9.96,3.98-14.67c2.08-4.71,4.66-8.85,7.75-12.43
		c3.08-3.58,6.47-6.45,10.17-8.63c3.69-2.17,7.44-3.26,11.24-3.26h14.2c8.68,0,15.26,1.88,19.74,5.64
		c4.48,3.76,6.72,9.99,6.72,18.68c0,2.72-0.22,5.62-0.65,8.69C399.43,37.86,398.03,42.88,395.88,47.59z M347.04,37.54v0.82
		c0,1.63,0.25,3.33,0.75,5.09c0.5,1.77,1.18,3.38,2.04,4.82c0.86,1.45,1.86,2.63,3.01,3.53c1.15,0.91,2.37,1.36,3.66,1.36h7.1
		c0.72,0,1.74-0.38,3.07-1.15c1.32-0.77,2.71-1.79,4.14-3.06c1.43-1.27,2.8-2.69,4.09-4.28c1.29-1.58,2.26-3.15,2.9-4.69
		c0.65-1.27,1.04-2.26,1.18-2.99l0.43-1.36c0.14-0.91,0.22-1.31,0.22-1.22c0.07-0.72,0.12-1.47,0.16-2.24
		c0.04-0.77,0.05-1.56,0.05-2.38c0-1.45-0.11-2.9-0.32-4.35c-0.22-1.45-0.65-2.74-1.29-3.87c-0.65-1.13-1.53-2.04-2.64-2.72
		c-1.11-0.68-2.57-1.02-4.36-1.02h-8.71c-1.15,0-2.39,0.39-3.71,1.15c-1.33,0.77-2.64,1.79-3.93,3.06c-1.29,1.27-2.49,2.7-3.6,4.28
		c-1.11,1.59-1.99,3.15-2.64,4.69c-0.36,1.09-0.68,2.11-0.97,3.06c-0.29,0.95-0.47,1.79-0.54,2.51
		C347.07,36.68,347.04,36.99,347.04,37.54z"/>
	<path class="st0" d="M415.67-0.5h26.03l6.13,40.48L459.56-0.5H480l-20.76,72H433.2l-6.03-40.48L415.56,71.5h-20.65L415.67-0.5z"/>
</g>
</svg>
