<svg width="35" height="36" viewBox="0 0 35 36" fill="none" xmlns="http://www.w3.org/2000/svg">
<path d="M34.9859 33.5331C34.5199 29.9581 32.6498 22.4131 25.1668 19.3231C26.7537 17.8155 27.8522 15.8669 28.3204 13.7287C28.7886 11.5905 28.6052 9.36109 27.7936 7.32831C26.9819 5.29553 25.5795 3.55276 23.7674 2.32507C21.9553 1.09739 19.8166 0.441162 17.6278 0.441162C15.439 0.441162 13.3005 1.09739 11.4884 2.32507C9.67627 3.55276 8.27388 5.29553 7.46225 7.32831C6.65062 9.36109 6.46693 11.5905 6.93515 13.7287C7.40337 15.8669 8.50205 17.8155 10.089 19.3231C2.60496 22.4131 0.735869 29.9581 0.269869 33.5331C0.238711 33.7758 0.259657 34.0223 0.331392 34.2563C0.403128 34.4902 0.524031 34.7062 0.685885 34.8897C0.847739 35.0733 1.04696 35.2201 1.27011 35.3206C1.49326 35.421 1.73513 35.4726 1.97983 35.4721H33.2748C33.5194 35.4725 33.7616 35.4207 33.9847 35.3202C34.2078 35.2198 34.4068 35.0729 34.5687 34.8894C34.7306 34.706 34.8515 34.4901 34.9234 34.2562C34.9954 34.0223 35.0168 33.7758 34.9859 33.5331Z" fill="#006DA3"/>
</svg>
